<?xml version="1.0" encoding="iso-8859-1"?>
<!-- Generator: Adobe Illustrator 16.0.0, SVG Export Plug-In . SVG Version: 6.00 Build 0)  -->
<!DOCTYPE svg PUBLIC "-//W3C//DTD SVG 1.1//EN" "http://www.w3.org/Graphics/SVG/1.1/DTD/svg11.dtd">
<svg version="1.1" id="Capa_1" xmlns="http://www.w3.org/2000/svg" xmlns:xlink="http://www.w3.org/1999/xlink" x="0px" y="0px"
	 width="485.213px" height="485.212px" viewBox="0 0 485.213 485.212" style="enable-background:new 0 0 485.213 485.212;"
	 xml:space="preserve">
<g>
	<path d="M363.908,166.794C363.908,74.809,309.509,0,242.606,0c-66.873,0-121.302,74.809-121.302,166.794H60.651v318.418h363.911
		V166.794H363.908z M136.465,227.445c-8.38,0-15.161-6.781-15.161-15.164c0-8.379,6.781-15.163,15.161-15.163
		c8.382,0,15.163,6.784,15.163,15.163C151.628,220.664,144.847,227.445,136.465,227.445z M242.606,30.327
		c50.166,0,90.979,61.216,90.979,136.468H151.628C151.628,91.542,192.44,30.327,242.606,30.327z M348.745,227.445
		c-8.382,0-15.159-6.781-15.159-15.164c0-8.379,6.777-15.163,15.159-15.163s15.163,6.784,15.163,15.163
		C363.908,220.664,357.127,227.445,348.745,227.445z"/>
</g>
<g>
</g>
<g>
</g>
<g>
</g>
<g>
</g>
<g>
</g>
<g>
</g>
<g>
</g>
<g>
</g>
<g>
</g>
<g>
</g>
<g>
</g>
<g>
</g>
<g>
</g>
<g>
</g>
<g>
</g>
</svg>
