<?xml version="1.0" encoding="iso-8859-1"?>
<!-- Generator: Adobe Illustrator 19.0.0, SVG Export Plug-In . SVG Version: 6.00 Build 0)  -->
<svg xmlns="http://www.w3.org/2000/svg" xmlns:xlink="http://www.w3.org/1999/xlink" version="1.1" id="Layer_1" x="0px" y="0px" viewBox="0 0 512 512" style="enable-background:new 0 0 512 512;" xml:space="preserve">
<g>
	<g>
		<path d="M495.062,192.291c-10.731-14.57-26.493-24.091-44.383-26.806c-3.568-0.542-7.217-0.791-10.812-0.765H327.472V91.277    C327.472,40.946,286.525,0,236.195,0c-8.173,0-15.58,4.813-18.899,12.282l-94.127,211.784c-1.175,2.645-1.782,5.506-1.782,8.4    v258.849c0,11.423,9.26,20.682,20.682,20.682h265.324c0.215,0.002,0.429,0.003,0.643,0.003c16.068,0,31.622-5.711,43.876-16.128    c12.45-10.581,20.656-25.306,23.1-41.427L507.49,242.63C510.206,224.74,505.792,206.862,495.062,192.291z M466.599,236.392    l-32.478,211.818c-1.946,12.833-13.131,22.425-26.085,22.425c-0.097,0-0.199,0-0.296-0.002c-0.078,0-0.155-0.001-0.233-0.001    H162.752V236.856l86.156-193.851c21.385,5.636,37.2,25.141,37.2,48.272v94.127c0,11.422,9.259,20.682,20.682,20.682h133.188    c0.078,0,0.156,0,0.234-0.001c1.419-0.013,2.853,0.084,4.259,0.297c6.967,1.057,13.105,4.765,17.284,10.439    C465.934,222.495,467.652,229.456,466.599,236.392z"/>
	</g>
</g>
<g>
	<g>
		<path d="M142.069,470.633H71.474c-14.546,0-26.381-11.835-26.381-26.381V279.531c0-14.547,11.835-26.381,26.381-26.381h70.595    c11.422,0,20.682-9.26,20.682-20.682c0-11.422-9.26-20.682-20.682-20.682H71.474c-37.355,0-67.746,30.391-67.746,67.746v164.721    c0,37.355,30.391,67.746,67.746,67.746h70.595c11.423,0,20.682-9.259,20.682-20.682    C162.751,479.892,153.491,470.633,142.069,470.633z"/>
	</g>
</g>
<g>
</g>
<g>
</g>
<g>
</g>
<g>
</g>
<g>
</g>
<g>
</g>
<g>
</g>
<g>
</g>
<g>
</g>
<g>
</g>
<g>
</g>
<g>
</g>
<g>
</g>
<g>
</g>
<g>
</g>
</svg>
